<svg width="17" height="23" viewBox="0 0 17 23" fill="none" xmlns="http://www.w3.org/2000/svg">
<path d="M16.1552 2.18231C16.0651 2.12479 15.3094 1.43293 14.8695 1.0188C14.301 0.684393 14.1121 1.00163 13.7357 1.37519C13.3593 1.74874 9.05502 5.68697 7.75603 6.56605C6.71684 7.26931 3.12793 9.98144 1.50932 11.0388C1.33708 11.319 0.987965 11.9518 0.969465 12.2407C0.946341 12.6019 0.962952 12.5649 1.09853 12.7276C1.2341 12.8903 1.19347 13.1356 1.37147 13.3587C1.54947 13.5818 1.76196 13.47 1.98149 13.6007C2.20101 13.7313 2.56621 14.3119 2.72364 14.3743C2.88106 14.4367 2.95057 14.3336 3.1609 14.3299C3.37122 14.3261 4.4125 15.4145 6.07824 16.8159C7.41083 17.937 13.602 22.149 14.641 22.6918C14.8166 22.5073 15.2 21.8246 15.2598 21.6915C15.3346 21.5251 15.6559 21.3258 15.7762 21.2645C15.8724 21.2155 15.822 20.9559 15.7849 20.8323L16.08 20.9493L16.2615 20.8034L16.0752 20.5988L16.4097 20.7315L16.4761 20.5836C16.5519 20.4321 16.6652 20.1008 16.5119 19.9878C16.3587 19.8747 16.4061 19.7933 16.4489 19.7667C15.8721 19.4508 13.9588 18.4861 13.3382 17.98C12.2796 17.1166 7.81422 13.9315 7.76042 13.8448C7.71739 13.7755 6.49059 12.6804 5.88257 12.1415C5.90399 12.1282 5.98313 12.0724 6.12828 11.9557C6.22746 11.876 9.10092 9.85796 11.7228 7.76639C13.8976 6.03151 15.8941 4.15798 16.0374 4.0963C16.3535 3.96025 16.8899 3.12729 16.8269 2.90623C16.7639 2.68517 16.4036 2.45511 16.2938 2.38979C16.1841 2.32447 16.2453 2.23982 16.1552 2.18231Z" fill="black"/>
</svg>
